{"title":"The.Host.2013.CAM.Rip.XViD-FANTA","uid":8340530,"size":1288070100,"categoryP":"video","categoryS":"movies","magnet":"?xt=urn:btih:e6e20c3887c1840ae6a7706bd517e14ac92ff09b&amp;dn=The.Host.2013.CAM.Rip.XViD-FANTA&amp;tr=udp%3A%2F%2Ftracker.openbittorrent.com%3A80&amp;tr=udp%3A%2F%2Fopen.demonii.com%3A1337&amp;tr=udp%3A%2F%2Ftracker.coppersurfer.tk%3A6969&amp;tr=udp%3A%2F%2Fexodus.desync.com%3A6969","seeders":1,"leechers":0,"uploader":"Gh0stNet","files":7,"time":1365090217,"description":"\tDirector:\nAndrew Niccol\n\nWriters:\nStephenie Meyer (novel), Andrew Niccol (screenplay)\n\nStars:\nSaoirse Ronan, Max Irons, Jake Abel\n\nGenres:\nAction |  Adventure |  Romance |  Sci-Fi |  Thriller\n\nCountry:\nUSA\n\nLanguage:\nEnglish\n\nFormat                                   : AVI\nFormat/Info                              : Audio Video Interleave\nFormat profile                           : OpenDML\nFormat settings                          : rec\nFile size                                : 1.20 GiB\nDuration                                 : 1h 51mn\nOverall bit rate                         : 1 534 Kbps\nWriting application                      : AVI-Mux GUI 1.17.8.3, Feb 16 201019:42:50\n\nVideo\nID                                       : 0\nFormat                                   : MPEG-4 Visual\nFormat profile                           : Advanced Simple@L5\nFormat settings, BVOP                    : 1\nFormat settings, QPel                    : No\nFormat settings, GMC                     : No warppoints\nFormat settings, Matrix                  : Default (H.263)\nMuxing mode                              : Packed bitstream\nCodec ID                                 : XVID\nCodec ID/Hint                            : XviD\nDuration                                 : 1h 51mn\nBit rate                                 : 1 337 Kbps\nWidth                                    : 720 pixels\nHeight                                   : 340 pixels\nDisplay aspect ratio                     : 2.118\nFrame rate                               : 25.000 fps\nColor space                              : YUV\nChroma subsampling                       : 4:2:0\nBit depth                                : 8 bits\nScan type                                : Progressive\nCompression mode                         : Lossy\nBits/(Pixel*Frame)                       : 0.218\nStream size                              : 1.04 GiB (87%)\nWriting library                          : XviD 64\n\nAudio\nID                                       : 1\nFormat                                   : AC-3\nFormat/Info                              : Audio Coding 3\nMode extension                           : CM (complete main)\nFormat settings, Endianness              : Big\nCodec ID                                 : 2000\nDuration                                 : 1h 51mn\nBit rate mode                            : Constant\nBit rate                                 : 192 Kbps\nChannel(s)                               : 2 channels\nChannel positions                        : Front: L R\nSampling rate                            : 48.0 KHz\nBit depth                                : 16 bits\nCompression mode                         : Lossy\nStream size                              : 154 MiB (13%)\nAlignment                                : Aligned on interleaves\nInterleave, duration                     : 64 ms (1.60 video frames)\nInterleave, preload duration             : 192 ms\nTitle                                    : audio-eng\n\nScreens: &lt;a href=&quot;\nhttp://www.shotpix.com/images/64123981052128694723.png&quot; rel=&quot;nofollow&quot; target=&quot;_NEW&quot;&gt;\nhttp://www.shotpix.com/images/64123981052128694723.png&lt;/a&gt; &lt;a href=&quot;\nhttp://www.shotpix.com/images/84967055494683173260.png&quot; rel=&quot;nofollow&quot; target=&quot;_NEW&quot;&gt;\nhttp://www.shotpix.com/images/84967055494683173260.png&lt;/a&gt; &lt;a href=&quot;\nhttp://www.shotpix.com/images/75291464824798278087.png&quot; rel=&quot;nofollow&quot; target=&quot;_NEW&quot;&gt;\nhttp://www.shotpix.com/images/75291464824798278087.png&lt;/a&gt; &lt;a href=&quot;\nhttp://www.shotpix.com/images/20245017222189850639.png&quot; rel=&quot;nofollow&quot; target=&quot;_NEW&quot;&gt;\nhttp://www.shotpix.com/images/20245017222189850639.png&lt;/a&gt;\n","torrent":{"xt":"urn:btih:e6e20c3887c1840ae6a7706bd517e14ac92ff09b","amp;dn":"The.Host.2013.CAM.Rip.XViD-FANTA","amp;tr":["udp%3A%2F%2Ftracker.openbittorrent.com%3A80","udp%3A%2F%2Fopen.demonii.com%3A1337","udp%3A%2F%2Ftracker.coppersurfer.tk%3A6969","udp%3A%2F%2Fexodus.desync.com%3A6969"],"infoHash":"e6e20c3887c1840ae6a7706bd517e14ac92ff09b","infoHashBuffer":{"type":"Buffer","data":[230,226,12,56,135,193,132,10,230,167,112,107,213,23,225,74,201,47,240,155]},"announce":[],"urlList":[]}}